<?xml version="1.0" encoding="UTF-8"?>
<svg version="1.1" xmlns="http://www.w3.org/2000/svg" width="354" height="352">
<path d="M0 0 C116.82 0 233.64 0 354 0 C354 116.16 354 232.32 354 352 C237.18 352 120.36 352 0 352 C0 235.84 0 119.68 0 0 Z " fill="#FDFDFD" transform="translate(0,0)"/>
<path d="M0 0 C116.82 0 233.64 0 354 0 C354 116.16 354 232.32 354 352 C237.18 352 120.36 352 0 352 C0 235.84 0 119.68 0 0 Z M154 11 C153.26007813 11.12358887 152.52015625 11.24717773 151.7578125 11.37451172 C126.84781336 15.69916435 102.88925056 25.17980246 83 41 C81.58382497 42.00069613 80.16718619 43.00073639 78.75 44 C75.37506884 46.54480696 72.77174625 49.40411992 70.06640625 52.63671875 C67.39293771 55.69427729 64.55735297 58.56508922 61.6875 61.4375 C61.15930664 61.97004395 60.63111328 62.50258789 60.08691406 63.05126953 C56.2491136 66.8754432 56.2491136 66.8754432 54 68 C54 68.66 54 69.32 54 70 C53.34 70 52.68 70 52 70 C50.71397372 71.38069912 50.71397372 71.38069912 49.4609375 73.2265625 C48.71880005 74.27058228 48.71880005 74.27058228 47.96166992 75.33569336 C47.43806885 76.09116455 46.91446777 76.84663574 46.375 77.625 C45.84173096 78.3888501 45.30846191 79.1527002 44.7590332 79.93969727 C40.12121745 86.66714738 35.43767825 93.56806702 32 101 C32.495 101.99 32.495 101.99 33 103 C33.72445312 102.16855469 34.44890625 101.33710937 35.1953125 100.48046875 C36.17139018 99.38238136 37.14798005 98.28474909 38.125 97.1875 C38.8365625 96.36668945 38.8365625 96.36668945 39.5625 95.52929688 C43.24348854 91.42549208 46.80754846 88.42164454 52.484375 87.671875 C53.23203125 87.69765625 53.9796875 87.7234375 54.75 87.75 C55.50796875 87.76546875 56.2659375 87.7809375 57.046875 87.796875 C59 88 59 88 61 89 C59.85724609 89.11214844 59.85724609 89.11214844 58.69140625 89.2265625 C48.52663745 90.52095253 41.79531018 94.31057006 35 102 C34.46890625 102.55429688 33.9378125 103.10859375 33.390625 103.6796875 C25.65956443 112.47120328 20.300394 126.33687353 19 138 C19.39836463 140.19266901 19.39836463 140.19266901 20 142 C20.3403125 141.35933594 20.680625 140.71867188 21.03125 140.05859375 C25.97024279 131.24459332 32.27400685 124.43922952 42 121 C43.99356277 120.63011004 45.99324808 120.28992733 48 120 C47.20078125 120.52207031 46.4015625 121.04414062 45.578125 121.58203125 C28.37637155 132.73684895 28.37637155 132.73684895 17 149 C16.09320646 154.63018036 16.01306805 160.3088625 16 166 C17.94686533 163.21407297 17.94686533 163.21407297 19.04296875 160.9140625 C21.73294017 155.53411966 24.39239326 151.52914508 30 149 C32.73210525 148.36250878 35.17922267 148.14846196 38 148 C33.17211482 153.75062091 27.9845618 159.01893905 22.55078125 164.19140625 C16.82606521 170.49473065 15.33764558 174.99613349 15.5625 183.3125 C15.57643799 184.18624268 15.59037598 185.05998535 15.60473633 185.96020508 C16.60900044 222.18895118 32.80316271 259.25392769 57 286 C57.66 286 58.32 286 59 286 C59.20625 286.53625 59.4125 287.0725 59.625 287.625 C61.53250426 290.91978009 64.04819384 293.59363628 67 296 C67.66 296 68.32 296 69 296 C69 296.66 69 297.32 69 298 C71.08781717 299.8140544 73.18036606 301.51118398 75.375 303.1875 C76.01985352 303.68435303 76.66470703 304.18120605 77.32910156 304.69311523 C79.21317675 306.13715044 81.10536166 307.56986714 83 309 C83.83273438 309.63679688 84.66546875 310.27359375 85.5234375 310.9296875 C119.93161249 336.16234916 164.64361009 345.77935282 206.6015625 339.39794922 C238.2196026 334.15187783 268.24995132 321.0181214 291.828125 299.01953125 C293.73204605 297.24915862 295.67891151 295.58614232 297.6875 293.9375 C322.65174893 272.57274743 338.69839029 237.7769179 344.62548828 206.00048828 C344.95425099 204.24437247 345.31627087 202.49455066 345.68359375 200.74609375 C353.6444251 156.87916787 340.15110502 112.53681189 315.59375 76.4375 C312.928896 72.61482403 312.928896 72.61482403 310 69 C309.34 69 308.68 69 308 69 C307.7525 68.443125 307.505 67.88625 307.25 67.3125 C305.77075182 64.57589087 304.06532561 62.32349131 302 60 C301.34 60 300.68 60 300 60 C300 59.34 300 58.68 300 58 C299.34 58 298.68 58 298 58 C298 57.34 298 56.68 298 56 C295.57561877 53.41750695 292.73236133 51.24687569 290 49 C289.49065918 48.57976563 288.98131836 48.15953125 288.45654297 47.7265625 C264.7345242 28.27099273 238.90688327 16.94455722 209 11 C207.78828125 10.75121094 206.5765625 10.50242187 205.328125 10.24609375 C188.64628465 7.33694354 170.65962445 8.17547878 154 11 Z " fill="#FAFAFA" transform="translate(0,0)"/>
<path d="M0 0 C8.79870489 -0.0468115 17.59736543 -0.08211261 26.39616871 -0.10362434 C30.48396589 -0.11396071 34.57167647 -0.12792855 38.65942383 -0.15087891 C95.53623162 -0.46132898 95.53623162 -0.46132898 110 13 C117.44221379 21.04563653 118.49465359 29.49602679 118.26953125 40.07421875 C117.55601116 50.46679401 113.79214838 58.10131224 106 65 C101.72638378 68.20521216 97.12975878 69.74373254 92 71 C92.76183594 71.17015625 93.52367187 71.3403125 94.30859375 71.515625 C106.17989537 74.30189804 116.10822764 77.94276287 123.5 88.1875 C125 91 125 91 125 95 C117.41 95 109.82 95 102 95 C100.7315625 92.1846875 100.7315625 92.1846875 99.4375 89.3125 C95.25207329 81.06759691 91.43678126 78.67278744 82.8125 75.75 C72.092605 72.3922922 60.37923224 72.79182316 49.25 72.4375 C47.96867187 72.39431641 46.68734375 72.35113281 45.3671875 72.30664062 C42.24487921 72.20178699 39.1224509 72.10051726 36 72 C36 79.59 36 87.18 36 95 C28.74 95 21.48 95 14 95 C13.9906543 92.38545898 13.98130859 89.77091797 13.97167969 87.07714844 C13.93792917 78.44364673 13.88239109 69.81038455 13.81609726 61.17707443 C13.77656944 55.94209276 13.744407 50.70728063 13.72900391 45.47216797 C13.71387226 40.42100213 13.67948895 35.37030225 13.63169098 30.31934357 C13.61684109 28.39125872 13.60895692 26.46310736 13.60811615 24.53496552 C13.60575557 21.83628013 13.57875012 19.13889202 13.54589844 16.44042969 C13.55344398 15.24172997 13.55344398 15.24172997 13.56114197 14.01881409 C13.49369527 10.44340672 13.3036685 8.40068996 11.11334229 5.51055908 C8.68477519 3.77468596 7.208151 3.42400888 4.25 3.25 C3.05117187 3.16492188 3.05117187 3.16492188 1.828125 3.078125 C1.22484375 3.05234375 0.6215625 3.0265625 0 3 C0 2.01 0 1.02 0 0 Z " fill="#020202" transform="translate(155,94)"/>
<path d="M0 0 C1.83788086 -0.04350586 1.83788086 -0.04350586 3.71289062 -0.08789062 C13.76509989 -0.15751168 23.35714852 1.32572649 30.9375 8.46875 C36.86705531 15.75716174 38.61703759 23.40573118 38.625 32.5625 C38.64336914 33.65111328 38.64336914 33.65111328 38.66210938 34.76171875 C38.68500699 43.32542745 36.92191817 51.35721452 31.125 57.9375 C20.1346313 67.64991885 7.66425399 67.74969707 -6.3125 67.5 C-7.79946545 67.48490967 -9.2864459 67.47122904 -10.7734375 67.45898438 C-14.37013675 67.42894513 -17.96617421 67.37212925 -21.5625 67.3125 C-21.65528582 59.44553506 -21.72630813 51.57869891 -21.76974869 43.71132374 C-21.79060093 40.05792185 -21.81887408 36.40489503 -21.86425781 32.75170898 C-21.90780186 29.22443151 -21.93165489 25.6975142 -21.94200897 22.16998863 C-21.95296874 20.17300401 -21.98418148 18.17616376 -22.01568604 16.17939758 C-22.01598816 14.95850937 -22.01629028 13.73762115 -22.01660156 12.47973633 C-22.02548401 11.40718094 -22.03436646 10.33462555 -22.04351807 9.22956848 C-21.444777 5.59858492 -20.09158578 3.93374304 -17.5625 1.3125 C-12.36768846 -0.90686044 -5.54360682 0.04279676 0 0 Z " fill="#FCFCFC" transform="translate(212.5625,96.6875)"/>
<path d="M0 0 C12.21 0 24.42 0 37 0 C52.69159505 29.42174072 52.69102959 54.18761682 51 87 C48.79741772 84.24990224 47.28067018 81.65921615 45.94702148 78.40258789 C45.57330917 77.49807388 45.19959686 76.59355988 44.81455994 75.66163635 C44.42071609 74.69177292 44.02687225 73.72190948 43.62109375 72.72265625 C43.20835709 71.71915634 42.79562042 70.71565643 42.37037659 69.68174744 C41.05399452 66.47752518 39.74568031 63.27007829 38.4375 60.0625 C37.55325854 57.90668597 36.66849872 55.75108448 35.78320312 53.59570312 C29.79307283 38.9989831 29.79307283 38.9989831 27 32 C25.39082781 34.41375828 24.32694546 36.39468517 23.23168945 39.03393555 C22.89406082 39.84295822 22.55643219 40.6519809 22.20857239 41.48551941 C21.84712631 42.36041519 21.48568024 43.23531097 21.11328125 44.13671875 C20.73318405 45.04895706 20.35308685 45.96119537 19.96147156 46.90107727 C18.74214357 49.8286457 17.52706164 52.75795131 16.3125 55.6875 C14.72716977 59.50470255 13.1398664 63.32107786 11.55078125 67.13671875 C11.16560333 68.06193329 10.78042542 68.98714783 10.38357544 69.94039917 C7.01789733 78.00276259 3.54069678 86.01314737 0 94 C-0.66 94 -1.32 94 -2 94 C-1.38975066 88.40529288 0.59667967 83.72615788 2.7890625 78.60546875 C3.17057465 77.69984695 3.55208679 76.79422516 3.94515991 75.86116028 C5.16572145 72.9673384 6.39507934 70.0773548 7.625 67.1875 C8.4289957 65.28736749 9.23238672 63.386979 10.03515625 61.48632812 C10.42926697 60.55386261 10.82337769 59.62139709 11.22943115 58.66067505 C12.01665577 56.79652765 12.80299794 54.93200734 13.58843994 53.06710815 C15.42895456 48.69987324 17.28352852 44.34065141 19.18261719 39.99853516 C19.83802772 38.4743428 20.4933089 36.95009481 21.1484375 35.42578125 C21.45455963 34.74235153 21.76068176 34.05892181 22.07608032 33.3547821 C24.79738972 26.95645873 23.24754006 23.19642849 20.75 17 C18.27430095 11.22573344 16.06819969 7.33399986 10.125 4.75 C6.76165793 3.9427979 3.43313459 3.41197615 0 3 C0 2.01 0 1.02 0 0 Z " fill="#030303" transform="translate(98,95)"/>
<path d="M0 0 C7.26 0 14.52 0 22 0 C22.09765625 2.96223958 22.1953125 5.92447917 22.29296875 8.88671875 C23.287607 13.26642421 24.18345318 14.53974668 28 17 C32.59585724 17.66831181 37.11595903 17.55907206 41.75 17.4375 C42.9875 17.43169922 44.225 17.42589844 45.5 17.41992188 C59.0216869 17.24011221 69.95520698 15.22342783 80.1171875 6.03515625 C82.29951933 3.8661761 82.29951933 3.8661761 84 0 C91.59 0 99.18 0 107 0 C103.76923007 8.07692484 97.49860327 12.14592481 89.61987305 15.59985352 C75.90044978 21.28717156 61.7432187 21.28706525 47.1328125 21.1953125 C45.35920371 21.19157235 43.58559282 21.18873013 41.8119812 21.18673706 C37.19250567 21.17917937 32.57316024 21.15960058 27.95373535 21.1373291 C23.22047687 21.1166991 18.48719693 21.10769903 13.75390625 21.09765625 C4.50254768 21.07634552 -4.74871525 21.04230727 -14 21 C-14 20.01 -14 19.02 -14 18 C-13.07767578 17.94392578 -13.07767578 17.94392578 -12.13671875 17.88671875 C-11.32847656 17.82097656 -10.52023438 17.75523437 -9.6875 17.6875 C-8.88699219 17.62949219 -8.08648437 17.57148438 -7.26171875 17.51171875 C-4.59936152 16.90935468 -3.68806452 16.10358809 -2 14 C-0.64908472 11.29816945 -0.66141942 8.88191794 -0.4375 5.875 C-0.293125 3.93625 -0.14875 1.9975 0 0 Z " fill="#060606" transform="translate(169,220)"/>
<path d="M0 0 C6.88001558 0.11862096 6.88001558 0.11862096 9.796875 2.4140625 C14.74816538 7.97813634 16.17242157 13.48288561 16.625 20.875 C16.69976563 22.02742188 16.77453125 23.17984375 16.8515625 24.3671875 C16.90054687 25.23601562 16.94953125 26.10484375 17 27 C17.66 26.34 18.32 25.68 19 25 C18.06646686 29.64570021 17.00882851 34.14979477 15.4375 38.625 C14.11233301 42.43318192 13.42609596 45.99469795 13 50 C13.3403125 49.43152344 13.680625 48.86304688 14.03125 48.27734375 C19.23369673 39.98940335 25.63260553 33.38939522 35 30 C37.36555489 29.47033116 39.57549578 29.20204202 42 29 C39.17226749 31.97898331 36.24386426 34.34500983 32.875 36.6875 C18.2964793 47.13229263 18.2964793 47.13229263 10.125 62.5625 C10.08375 63.366875 10.0425 64.17125 10 65 C9.67 65 9.34 65 9 65 C9.15662109 63.62328125 9.15662109 63.62328125 9.31640625 62.21875 C10.01632526 54.85144487 10.01632526 54.85144487 6.9609375 48.46484375 C4.48860578 46.41353503 4.48860578 46.41353503 1.87109375 44.74609375 C0.94490234 43.88177734 0.94490234 43.88177734 0 43 C0.22265625 40.28515625 0.22265625 40.28515625 1 38 C3.3125 37.3125 3.3125 37.3125 6 37 C8.988093 38.992062 9.74603343 41.74502293 11 45 C11.39772501 29.96010226 11.11634317 18.10697489 3 5 C2.401875 3.989375 1.80375 2.97875 1.1875 1.9375 C0.795625 1.298125 0.40375 0.65875 0 0 Z " fill="#141414" transform="translate(7,90)"/>
<path d="M0 0 C0.66 0.66 1.32 1.32 2 2 C-0.31 2 -2.62 2 -5 2 C-5.33 5.3 -5.66 8.6 -6 12 C-1.03088634 10.87302957 -1.03088634 10.87302957 3 8 C3.28875 8.763125 3.5775 9.52625 3.875 10.3125 C4.96269013 13.15029308 4.96269013 13.15029308 7 16 C6.43327239 23.79250457 6.43327239 23.79250457 4 27 C-0.73943107 30.25255073 -4.30383545 31.53500698 -10 32 C-10.33 33.32 -10.66 34.64 -11 36 C-11.33 36 -11.66 36 -12 36 C-12.38465895 29.18463243 -10.94593706 22.83790678 -9.5625 16.1875 C-9.33240234 15.04345703 -9.10230469 13.89941406 -8.86523438 12.72070312 C-7.14532343 4.29064685 -7.14532343 4.29064685 -6 2 C-6.66 1.67 -7.32 1.34 -8 1 C-5.23749964 -0.38125018 -3.05268901 -0.19079306 0 0 Z " fill="#F0F0F0" transform="translate(222,187)"/>
<path d="M0 0 C-1.36545786 3.08091433 -2.89889805 5.1103618 -5.3359375 7.42578125 C-5.98820312 8.05806641 -6.64046875 8.69035156 -7.3125 9.34179688 C-8.67756453 10.64610569 -10.04472462 11.94822519 -11.4140625 13.24804688 C-16.64429402 18.32899029 -21.00577247 22.8006359 -21.49609375 30.42578125 C-21.50192534 32.05479415 -21.48123669 33.6840639 -21.4375 35.3125 C-21.42501221 36.18189209 -21.41252441 37.05128418 -21.3996582 37.94702148 C-21.08441107 49.81774383 -19.11282544 61.53392145 -15.453125 72.8359375 C-14.9480676 75.24802197 -15.21859322 76.68745832 -16 79 C-23.58116396 54.99797499 -24.57115352 30.96549926 -25 6 C-23.515 6.99 -23.515 6.99 -22 8 C-21.3125 11.625 -21.3125 11.625 -21 15 C-20.731875 14.41992188 -20.46375 13.83984375 -20.1875 13.2421875 C-15.67304334 4.24297456 -10.44273442 -1.1188644 0 0 Z " fill="#0D0D0D" transform="translate(38,148)"/>
<path d="M0 0 C1.32 0 2.64 0 4 0 C4 0.99 4 1.98 4 3 C6.44496043 4.71711243 6.44496043 4.71711243 9 6 C10.37562854 4.71034824 11.70766393 3.37310707 13 2 C13 1.34 13 0.68 13 0 C14.32 0 15.64 0 17 0 C16.625 1.9375 16.625 1.9375 16 4 C15.01 4.495 15.01 4.495 14 5 C14.12375 6.3303125 14.12375 6.3303125 14.25 7.6875 C13.94791837 11.69008159 12.70272533 13.12835434 10 16 C12.64 16 15.28 16 18 16 C17.34 16.66 16.68 17.32 16 18 C14.046875 17.94140625 14.046875 17.94140625 11.75 17.5625 C7.9047168 17.02465492 4.83017742 17.2704424 1 18 C0.01 17.67 -0.98 17.34 -2 17 C-2 16.01 -2 15.02 -2 14 C-2.66 14 -3.32 14 -4 14 C-4.8125 11.375 -4.8125 11.375 -5 8 C-3.5658863 5.72040136 -1.84967395 3.98501594 0 2 C0 1.34 0 0.68 0 0 Z " fill="#E3E3E3" transform="translate(171,196)"/>
<path d="M0 0 C0.99 0.33 1.98 0.66 3 1 C2.69964844 1.64066406 2.39929688 2.28132812 2.08984375 2.94140625 C-0.26058367 8.2876327 -1.89950456 12.18276727 0 18 C2.8481055 21.16456167 5.87242919 21.53095786 10 22 C10 22.99 10 23.98 10 25 C-0.56 25 -11.12 25 -22 25 C-22 24.01 -22 23.02 -22 22 C-21.27554688 21.79246094 -20.55109375 21.58492187 -19.8046875 21.37109375 C-13.05215889 19.21928797 -8.67889886 17.16888529 -5 11 C-3.17264703 7.39389388 -1.52913619 3.74164741 0 0 Z " fill="#070707" transform="translate(82,220)"/>
<path d="M0 0 C0.33 0 0.66 0 1 0 C1.36517527 6.57315478 0.13619737 11.79485526 -2 18 C-0.35 18 1.3 18 3 18 C3 18.33 3 18.66 3 19 C1.35 19.33 -0.3 19.66 -2 20 C-2.99 25.28 -3.98 30.56 -5 36 C-5.33 36 -5.66 36 -6 36 C-6.21824777 29.9981863 -5.5056904 24.80766296 -4 19 C-6.40288398 19.14992105 -6.40288398 19.14992105 -9 20 C-10.7426282 22.05324039 -10.7426282 22.05324039 -12.0625 24.5625 C-13.47265625 27.06640625 -13.47265625 27.06640625 -15 29 C-16.32 29 -17.64 29 -19 29 C-20.22691067 26.54617866 -20.20175931 24.80015897 -20.25 22.0625 C-20.27578125 21.18722656 -20.3015625 20.31195313 -20.328125 19.41015625 C-20 17 -20 17 -18.68359375 15.1953125 C-16.17555044 13.41465994 -13.98539002 13.800974 -11 14 C-12.98 14.99 -12.98 14.99 -15 16 C-12.69 16 -10.38 16 -8 16 C-8 16.66 -8 17.32 -8 18 C-6.35 18 -4.7 18 -3 18 C-3 15.36 -3 12.72 -3 10 C-3.66 10 -4.32 10 -5 10 C-3.85017555 6.10828647 -2.70784225 3.06103907 0 0 Z " fill="#BEBEBE" transform="translate(124,187)"/>
<path d="M0 0 C0.99 0.33 1.98 0.66 3 1 C0.42475341 7.25915767 -2.15329834 13.51715486 -4.7331543 19.77441406 C-5.6074736 21.89590287 -6.48118875 24.01764078 -7.35424805 26.13964844 C-12.43507706 38.48754959 -17.57180064 50.80028733 -23 63 C-23.66 63 -24.32 63 -25 63 C-24.38960843 57.3722925 -22.37659544 52.65278671 -20.17578125 47.5 C-19.59995552 46.13089478 -19.59995552 46.13089478 -19.01249695 44.73413086 C-17.78519155 41.8201677 -16.54896169 38.91008799 -15.3125 36 C-14.5000685 34.07446444 -13.68821397 32.14868532 -12.87695312 30.22265625 C-8.62202235 20.13247522 -4.32880464 10.05870442 0 0 Z " fill="#181818" transform="translate(121,126)"/>
<path d="M0 0 C0.66 0.66 1.32 1.32 2 2 C-0.31 2 -2.62 2 -5 2 C-5.33 5.3 -5.66 8.6 -6 12 C-1.03088634 10.87302957 -1.03088634 10.87302957 3 8 C3.28875 8.763125 3.5775 9.52625 3.875 10.3125 C4.96269013 13.15029308 4.96269013 13.15029308 7 16 C6.70187643 20.09919904 6.12632393 23.45612679 4 27 C3.34 26.67 2.68 26.34 2 26 C2.33 25.484375 2.66 24.96875 3 24.4375 C4.32010877 21.21973488 4.13242105 18.4429472 4 15 C2.31026274 14.11443256 2.31026274 14.11443256 0 14 C-2.04291182 15.26660533 -4.04690112 16.59886384 -6 18 C-6.66 18 -7.32 18 -8 18 C-8.12117187 19.21558594 -8.24234375 20.43117187 -8.3671875 21.68359375 C-8.53597078 23.26828117 -8.70526816 24.8529139 -8.875 26.4375 C-8.95363281 27.23994141 -9.03226563 28.04238281 -9.11328125 28.86914062 C-9.33845763 30.92170994 -9.66222587 32.96293009 -10 35 C-10.99 35.495 -10.99 35.495 -12 36 C-12.38465895 29.18463243 -10.94593706 22.83790678 -9.5625 16.1875 C-9.33240234 15.04345703 -9.10230469 13.89941406 -8.86523438 12.72070312 C-7.14532343 4.29064685 -7.14532343 4.29064685 -6 2 C-6.66 1.67 -7.32 1.34 -8 1 C-5.23749964 -0.38125018 -3.05268901 -0.19079306 0 0 Z " fill="#5E5E5E" transform="translate(222,187)"/>
<path d="M0 0 C1.16015625 -0.03867188 1.16015625 -0.03867188 2.34375 -0.078125 C4.98830838 0.3243078 5.83240802 1.21895849 7.5 3.25 C6.66597656 3.32476562 5.83195312 3.39953125 4.97265625 3.4765625 C-5.54418101 4.70533386 -12.5373082 8.18793581 -19.5 16.25 C-21.36104986 18.81963339 -23.17203858 21.41463356 -24.94921875 24.04296875 C-26.5 26.25 -26.5 26.25 -28.5 28.25 C-27.84580901 23.18001981 -25.6453591 18.83009223 -23.5 14.25 C-22.51 14.25 -21.52 14.25 -20.5 14.25 C-18.79865993 12.65291884 -18.79865993 12.65291884 -17.1875 10.5625 C-12.28035251 4.71127128 -8.04188105 0.16083762 0 0 Z " fill="#0B0B0B" transform="translate(54.5,86.75)"/>
<path d="M0 0 C0.66 0.66 1.32 1.32 2 2 C2.99 1.67 3.98 1.34 5 1 C4.6875 4.375 4.6875 4.375 4 8 C3.01 8.66 2.02 9.32 1 10 C0.1374405 12.7290344 -0.56991944 15.34228295 -1.1875 18.125 C-1.36474609 18.87910156 -1.54199219 19.63320312 -1.72460938 20.41015625 C-2.16037182 22.27097967 -2.58158786 24.13519867 -3 26 C-3.33 26 -3.66 26 -4 26 C-3.4618629 20.30948637 -2.8599867 14.65134116 -2 9 C-4.09782787 11.09782787 -4.6509396 12.3799207 -5.625 15.125 C-5.88539063 15.84945312 -6.14578125 16.57390625 -6.4140625 17.3203125 C-6.60742188 17.87460938 -6.80078125 18.42890625 -7 19 C-7.99 19 -8.98 19 -10 19 C-9.62875 17.7625 -9.2575 16.525 -8.875 15.25 C-7.98450875 11.95740853 -7.98450875 11.95740853 -8.9375 8.75 C-9.288125 8.1725 -9.63875 7.595 -10 7 C-9.625 4.75 -9.625 4.75 -9 3 C-7.68 2.67 -6.36 2.34 -5 2 C-5.66 2.66 -6.32 3.32 -7 4 C-7.16681109 7.08347826 -7.16681109 7.08347826 -7 10 C-2.50970641 6.86378037 -2.50970641 6.86378037 -0.125 2.1875 C-0.08375 1.465625 -0.0425 0.74375 0 0 Z " fill="#494949" transform="translate(138,200)"/>
<path d="M0 0 C1.32 0 2.64 0 4 0 C3.625 1.9375 3.625 1.9375 3 4 C2.01 4.495 2.01 4.495 1 5 C1.12375 6.3303125 1.12375 6.3303125 1.25 7.6875 C0.94791837 11.69008159 -0.29727467 13.12835434 -3 16 C-0.36 16 2.28 16 5 16 C4.34 16.66 3.68 17.32 3 18 C-1.29749569 17.91891518 -3.46419029 17.41932934 -6.875 14.75 C-9.03706717 11.95203072 -9.81623985 10.49144279 -10 7 C-9.67 6.01 -9.34 5.02 -9 4 C-6.525 4.99 -6.525 4.99 -4 6 C-2.62437146 4.71034824 -1.29233607 3.37310707 0 2 C0 1.34 0 0.68 0 0 Z " fill="#C7C7C7" transform="translate(184,196)"/>
<path d="M0 0 C3 2 3 2 3.546875 4.5390625 C3.61390625 5.55742187 3.6809375 6.57578125 3.75 7.625 C3.86601562 9.12933594 3.86601562 9.12933594 3.984375 10.6640625 C4 14 4 14 3.4765625 17.63671875 C2.71651238 23.1787509 3.19581624 28.63069975 3.625 34.1875 C3.70983643 35.3213916 3.79467285 36.4552832 3.88208008 37.62353516 C4.61859286 46.14799975 6.14011856 54.25646948 8.41064453 62.50073242 C8.73911377 63.70306519 8.73911377 63.70306519 9.07421875 64.9296875 C9.27619873 65.62304199 9.47817871 66.31639648 9.6862793 67.03076172 C10.04747468 69.29800062 9.69338735 70.83031968 9 73 C1.41883604 48.99797499 0.42884648 24.96549926 0 0 Z " fill="#6C6C6C" transform="translate(13,154)"/>
<path d="M0 0 C0.33 0 0.66 0 1 0 C1.36517527 6.57315478 0.13619737 11.79485526 -2 18 C-0.35 18 1.3 18 3 18 C3 18.33 3 18.66 3 19 C1.35 19.33 -0.3 19.66 -2 20 C-2.99 25.28 -3.98 30.56 -5 36 C-5.33 36 -5.66 36 -6 36 C-6.21824777 29.9981863 -5.5056904 24.80766296 -4 19 C-6.40877257 19.11341534 -6.40877257 19.11341534 -9 20 C-10.84434349 22.46115547 -10.84434349 22.46115547 -12 25 C-12.33 24.34 -12.66 23.68 -13 23 C-12.0625 20.875 -12.0625 20.875 -11 19 C-12.32 18.67 -13.64 18.34 -15 18 C-13.02 18 -11.04 18 -9 18 C-8.67 17.34 -8.34 16.68 -8 16 C-8 16.66 -8 17.32 -8 18 C-6.35 18 -4.7 18 -3 18 C-3 15.36 -3 12.72 -3 10 C-3.66 10 -4.32 10 -5 10 C-3.85017555 6.10828647 -2.70784225 3.06103907 0 0 Z " fill="#515151" transform="translate(124,187)"/>
<path d="M0 0 C2.9375 0.1875 2.9375 0.1875 6 1 C8.72640172 4.22211113 8.15537649 7.96021122 8 12 C8.66 12 9.32 12 10 12 C9.67 12.99 9.34 13.98 9 15 C8.54109375 14.60167969 8.0821875 14.20335937 7.609375 13.79296875 C4.47728415 11.08857938 1.36122541 8.42008229 -2 6 C-1.125 1.125 -1.125 1.125 0 0 Z " fill="#0C0C0C" transform="translate(9,127)"/>
<path d="M0 0 C6.15234375 -0.09765625 6.15234375 -0.09765625 8 0 C9 1 9 1 9.0625 3.5625 C9.041875 4.366875 9.02125 5.17125 9 6 C8.34 6 7.68 6 7 6 C6.67 6.99 6.34 7.98 6 9 C3.39137376 10.03131735 0.75952365 10.43057449 -2 11 C-1.34 7.37 -0.68 3.74 0 0 Z " fill="#EAEAEA" transform="translate(217,189)"/>
<path d="M0 0 C1.2077558 3.62326739 0.54311128 4.64146369 -1 8 C0.32 7.34 1.64 6.68 3 6 C1.61341439 9.80281399 -0.15672908 12.99431636 -2.375 16.375 C-5.060404 20.51803456 -7.60273029 24.68491453 -10 29 C-11 27 -11 27 -10.42675781 25.0480957 C-10.10545898 24.26523193 -9.78416016 23.48236816 -9.453125 22.67578125 C-9.1025 21.81146484 -8.751875 20.94714844 -8.390625 20.05664062 C-8.01421875 19.15107422 -7.6378125 18.24550781 -7.25 17.3125 C-6.8890625 16.42626953 -6.528125 15.54003906 -6.15625 14.62695312 C-4.15507422 9.72914791 -2.09936648 4.85644588 0 0 Z " fill="#404040" transform="translate(43,72)"/>
<path d="M0 0 C0.66 0.33 1.32 0.66 2 1 C-2.3556367 6.24260272 -7.02235667 11.15694883 -11.8125 16 C-12.67524536 16.8820813 -12.67524536 16.8820813 -13.55541992 17.78198242 C-14.997973 19.2279473 -16.49498029 20.61917073 -18 22 C-18.66 22 -19.32 22 -20 22 C-18.51346494 18.53370165 -16.54277649 16.30977964 -13.8671875 13.671875 C-12.65869141 12.47304688 -12.65869141 12.47304688 -11.42578125 11.25 C-10.58402344 10.425 -9.74226563 9.6 -8.875 8.75 C-8.02550781 7.90953125 -7.17601563 7.0690625 -6.30078125 6.203125 C-4.20495077 4.13084317 -2.10459287 2.06337607 0 0 Z " fill="#A2A2A2" transform="translate(74,46)"/>
<path d="M0 0 C0.268125 0.5775 0.53625 1.155 0.8125 1.75 C1.90371332 4.05468236 1.90371332 4.05468236 3.6875 5.8125 C5.65865005 9.09775009 4.84422764 11.36332708 4 15 C2.9375 17.4375 2.9375 17.4375 2 19 C1.34 18.67 0.68 18.34 0 18 C0.33 17.484375 0.66 16.96875 1 16.4375 C2.32010877 13.21973488 2.13242105 10.4429472 2 7 C-2.00200378 5.39919849 -5.04556236 6.70720308 -9 8 C-8.375 6.125 -8.375 6.125 -7 4 C-5.02111039 3.27306096 -3.02045442 2.60183749 -1 2 C-0.67 1.34 -0.34 0.68 0 0 Z " fill="#686868" transform="translate(224,195)"/>
<path d="M0 0 C0.66 0 1.32 0 2 0 C1.01 2.97 0.02 5.94 -1 9 C2.91603304 6.20579508 2.91603304 6.20579508 5 2 C6.32 2.33 7.64 2.66 9 3 C9.12375 3.639375 9.2475 4.27875 9.375 4.9375 C9.58125 5.618125 9.7875 6.29875 10 7 C10.66 7.33 11.32 7.66 12 8 C11.01 8 10.02 8 9 8 C8.34 7.34 7.68 6.68 7 6 C6.54625 6.66 6.0925 7.32 5.625 8 C5.08875 8.66 4.5525 9.32 4 10 C2 10 0 10 -2 10 C-2.25 3.375 -2.25 3.375 0 0 Z " fill="#4D4D4D" transform="translate(146,201)"/>
<path d="M0 0 C0.99 0.33 1.98 0.66 3 1 C2.01 1.495 2.01 1.495 1 2 C1 3.98 1 5.96 1 8 C2.32 7.01 3.64 6.02 5 5 C5.66 5.33 6.32 5.66 7 6 C6.53980469 6.40863281 6.07960937 6.81726563 5.60546875 7.23828125 C3.84085229 9.17463654 3.16028378 10.72488998 2.3125 13.1875 C2.06113281 13.90292969 1.80976563 14.61835938 1.55078125 15.35546875 C1.36902344 15.89816406 1.18726563 16.44085938 1 17 C0.01 17 -0.98 17 -2 17 C-1.62875 15.7625 -1.2575 14.525 -0.875 13.25 C0.01549125 9.95740853 0.01549125 9.95740853 -0.9375 6.75 C-1.288125 6.1725 -1.63875 5.595 -2 5 C-1.5 1.5 -1.5 1.5 0 0 Z " fill="#646464" transform="translate(130,202)"/>
<path d="M0 0 C0.99 0 1.98 0 3 0 C3 0.66 3 1.32 3 2 C4.32 1.67 5.64 1.34 7 1 C6.9375 2.8125 6.9375 2.8125 6 5 C4.32545626 5.75518639 2.64361738 6.50030759 0.921875 7.140625 C-2.21602222 8.54374977 -4.4602074 10.70799204 -7 13 C-5.91789661 10.47509209 -4.96225186 8.96453963 -2.9375 7.0625 C-0.71029591 4.69160532 -0.35370563 3.18335068 0 0 Z " fill="#323232" transform="translate(69,30)"/>
<path d="M0 0 C0.66 0 1.32 0 2 0 C1.85950482 1.47968324 1.71245174 2.95874516 1.5625 4.4375 C1.48128906 5.26121094 1.40007813 6.08492187 1.31640625 6.93359375 C1 9 1 9 0 10 C-0.07226502 11.85287502 -0.0838122 13.70833878 -0.0625 15.5625 C-0.05347656 16.57441406 -0.04445312 17.58632813 -0.03515625 18.62890625 C-0.02355469 19.41136719 -0.01195312 20.19382812 0 21 C-2.55049551 18.44950449 -2.2606479 16.76517246 -2.2734375 13.28320312 C-2.26570313 12.55037109 -2.25796875 11.81753906 -2.25 11.0625 C-2.25773437 10.33353516 -2.26546875 9.60457031 -2.2734375 8.85351562 C-2.25946171 5.04161777 -2.16125927 3.2418889 0 0 Z " fill="#2E2E2E" transform="translate(45,43)"/>
<path d="M0 0 C-0.33 2.97 -0.66 5.94 -1 9 C-2.65 9 -4.3 9 -6 9 C-5.125 3.25 -5.125 3.25 -4 1 C-1 0 -1 0 0 0 Z " fill="#D7D7D7" transform="translate(122,196)"/>
<path d="M0 0 C0.33 0 0.66 0 1 0 C1.14285714 8.57142857 1.14285714 8.57142857 0 12 C-0.66 12 -1.32 12 -2 12 C-2.33 11.34 -2.66 10.68 -3 10 C-3.66 10 -4.32 10 -5 10 C-3.85017555 6.10828647 -2.70784225 3.06103907 0 0 Z " fill="#8D8D8D" transform="translate(124,187)"/>
<path d="M0 0 C1.11346788 2.80033839 1.03510273 3.90143703 0.00390625 6.796875 C-0.47175781 7.77140625 -0.94742188 8.7459375 -1.4375 9.75 C-1.91058594 10.73484375 -2.38367188 11.7196875 -2.87109375 12.734375 C-3.24363281 13.48203125 -3.61617188 14.2296875 -4 15 C-4.66 15 -5.32 15 -6 15 C-5.48640535 9.8640535 -3.7815677 3.7815677 0 0 Z " fill="#171717" transform="translate(102,174)"/>
<path d="M0 0 C0.66 0 1.32 0 2 0 C1.50114996 2.24482516 0.92343936 4.1621284 -0.0625 6.25 C-1.33785067 9.99102862 -1.12752851 13.04661629 -1 17 C-1 20 -1 20 -3 22.1875 C-3.66 22.785625 -4.32 23.38375 -5 24 C-4.505 22.515 -4.505 22.515 -4 21 C-3.81296668 19.62899585 -3.66125184 18.25294548 -3.53515625 16.875 C-3.45716797 16.08609375 -3.37917969 15.2971875 -3.29882812 14.484375 C-3.14131064 12.82848873 -2.98766229 11.17222983 -2.83789062 9.515625 C-2.75861328 8.72671875 -2.67933594 7.9378125 -2.59765625 7.125 C-2.53070557 6.40570313 -2.46375488 5.68640625 -2.39477539 4.9453125 C-2 3 -2 3 0 0 Z " fill="#424242" transform="translate(62,26)"/>
<path d="M0 0 C3 0 3 0 5 1 C4.52949219 1.60328125 4.05898438 2.2065625 3.57421875 2.828125 C2.95160156 3.62734375 2.32898437 4.4265625 1.6875 5.25 C1.07261719 6.03890625 0.45773438 6.8278125 -0.17578125 7.640625 C-1.80379018 9.7462297 -3.40935863 11.86609343 -5 14 C-4.34580901 8.93001981 -2.1453591 4.58009223 0 0 Z " fill="#6C6C6C" transform="translate(31,101)"/>
<path d="M0 0 C1.2077558 3.62326739 0.54311128 4.64146369 -1 8 C0.32 7.34 1.64 6.68 3 6 C1.51153846 10.71346154 1.51153846 10.71346154 -1.078125 12.1640625 C-2.02945313 12.57785156 -2.02945313 12.57785156 -3 13 C-2.88490339 11.58249437 -2.75746342 10.16598831 -2.625 8.75 C-2.55539063 7.96109375 -2.48578125 7.1721875 -2.4140625 6.359375 C-1.98492887 3.914123 -1.21399362 2.15163097 0 0 Z " fill="#757575" transform="translate(43,72)"/>
<path d="M0 0 C0.66 0.66 1.32 1.32 2 2 C-0.31 2 -2.62 2 -5 2 C-5.33 5.3 -5.66 8.6 -6 12 C-6.66 11.67 -7.32 11.34 -8 11 C-7.34 8.03 -6.68 5.06 -6 2 C-6.66 1.67 -7.32 1.34 -8 1 C-5.23749964 -0.38125018 -3.05268901 -0.19079306 0 0 Z " fill="#6B6B6B" transform="translate(222,187)"/>
<path d="M0 0 C0.66 0.33 1.32 0.66 2 1 C0.54144353 4.68646141 -1.30229045 6.16143971 -4.625 8.25 C-5.44226562 8.77078125 -6.25953125 9.2915625 -7.1015625 9.828125 C-8.04128906 10.40820312 -8.04128906 10.40820312 -9 11 C-7.59155282 7.78475695 -5.89655214 5.67816132 -3.375 3.25 C-2.74335937 2.63640625 -2.11171875 2.0228125 -1.4609375 1.390625 C-0.73777344 0.70226562 -0.73777344 0.70226562 0 0 Z " fill="#181818" transform="translate(44,90)"/>
<path d="M0 0 C0.66 0.66 1.32 1.32 2 2 C2.99 1.67 3.98 1.34 5 1 C4.67 3.31 4.34 5.62 4 8 C3.01 8 2.02 8 1 8 C0.67 5.36 0.34 2.72 0 0 Z " fill="#7D7D7D" transform="translate(138,200)"/>
<path d="M0 0 C1.32 0 2.64 0 4 0 C3.59316505 2.35964273 3.10185661 3.85934088 1.6875 5.8125 C0 7 0 7 -2.1875 6.6875 C-2.785625 6.460625 -3.38375 6.23375 -4 6 C-3.34 5.38125 -2.68 4.7625 -2 4.125 C0.2284549 2.24362573 0.2284549 2.24362573 0 0 Z " fill="#9C9C9C" transform="translate(184,196)"/>
<path d="M0 0 C0.99 0.33 1.98 0.66 3 1 C2.01 3.31 1.02 5.62 0 8 C-0.99 8 -1.98 8 -3 8 C-1.125 1.125 -1.125 1.125 0 0 Z " fill="#1E1E1E" transform="translate(82,220)"/>
<path d="M0 0 C1.32 0.66 2.64 1.32 4 2 C3.67 2.99 3.34 3.98 3 5 C3 4.34 3 3.68 3 3 C2.34 3 1.68 3 1 3 C0.34 4.65 -0.32 6.3 -1 8 C-1.66 7.01 -2.32 6.02 -3 5 C-2.01 3.35 -1.02 1.7 0 0 Z " fill="#454545" transform="translate(238,203)"/>
<path d="M0 0 C0.66 0.66 1.32 1.32 2 2 C1.5390625 4.8203125 1.5390625 4.8203125 0.625 8.125 C0.32851563 9.22070312 0.03203125 10.31640625 -0.2734375 11.4453125 C-0.51320313 12.28835937 -0.75296875 13.13140625 -1 14 C-1.33 14 -1.66 14 -2 14 C-2.1799928 8.78020872 -1.97094808 4.92737019 0 0 Z " fill="#545454" transform="translate(18,141)"/>
<path d="M0 0 C0.66 0 1.32 0 2 0 C1.30058404 3.14737182 0.23921302 6.02588876 -1 9 C0.32 8.67 1.64 8.34 3 8 C2.67 8.66 2.34 9.32 2 10 C0.68 10 -0.64 10 -2 10 C-2.17942163 6.05272412 -2.09350689 3.4019487 0 0 Z " fill="#434343" transform="translate(232,201)"/>
<path d="M0 0 C0.33 0.66 0.66 1.32 1 2 C0.00390625 4.3828125 0.00390625 4.3828125 -1.4375 7.125 C-1.91058594 8.03507812 -2.38367187 8.94515625 -2.87109375 9.8828125 C-3.24363281 10.58148438 -3.61617187 11.28015625 -4 12 C-5.12737713 8.61786861 -5.06292002 7.35228621 -4 4 C-1.9375 1.6875 -1.9375 1.6875 0 0 Z " fill="#4D4D4D" transform="translate(49,60)"/>
<path d="M0 0 C0.99 0.33 1.98 0.66 3 1 C2.67 1.99 2.34 2.98 2 4 C0.02 4.33 -1.96 4.66 -4 5 C-2.25 1.125 -2.25 1.125 0 0 Z " fill="#A1A1A1" transform="translate(219,198)"/>
<path d="M0 0 C2.86724686 0.57344937 3.8614515 0.8614515 6 3 C5.67 3.99 5.34 4.98 5 6 C3.2925002 4.71937515 1.62626404 3.38232443 0 2 C0 1.34 0 0.68 0 0 Z " fill="#1E1E1E" transform="translate(1,137)"/>
<path d="M0 0 C1 3 1 3 0.0625 5.1875 C-0.4634375 6.0846875 -0.4634375 6.0846875 -1 7 C-1.99 7 -2.98 7 -4 7 C-3.39816251 4.97954558 -2.72693904 2.97888961 -2 1 C-1.34 0.67 -0.68 0.34 0 0 Z " fill="#717171" transform="translate(132,212)"/>
<path d="M0 0 C0.99 0 1.98 0 3 0 C2.34 1.98 1.68 3.96 1 6 C0.01 6 -0.98 6 -2 6 C-1.34 4.02 -0.68 2.04 0 0 Z " fill="#212121" transform="translate(103,169)"/>
<path d="M0 0 C1.485 0.99 1.485 0.99 3 2 C3.1875 5.625 3.1875 5.625 3 9 C2.34 8.67 1.68 8.34 1 8 C0.40644386 5.35139573 0.25790731 2.70802678 0 0 Z " fill="#505050" transform="translate(13,154)"/>
<path d="M0 0 C0.99 0 1.98 0 3 0 C2.34 1.98 1.68 3.96 1 6 C0.01 6 -0.98 6 -2 6 C-1.34 4.02 -0.68 2.04 0 0 Z " fill="#222222" transform="translate(108,157)"/>
<path d="M0 0 C0.99 0.66 1.98 1.32 3 2 C2.34 3.65 1.68 5.3 1 7 C0.01 6.67 -0.98 6.34 -2 6 C-1.34 4.02 -0.68 2.04 0 0 Z " fill="#5A5A5A" transform="translate(39,82)"/>
<path d="M0 0 C0.66 1.32 1.32 2.64 2 4 C-1.75 7 -1.75 7 -4 7 C-2.79618552 4.50638429 -1.54571278 2.31856917 0 0 Z " fill="#5A5A5A" transform="translate(56,50)"/>
</svg>
