<svg xmlns="http://www.w3.org/2000/svg" xmlns:xlink="http://www.w3.org/1999/xlink" width="480" zoomAndPan="magnify" viewBox="0 0 360 359.999987" height="480" preserveAspectRatio="xMidYMid meet" version="1.0"><defs><clipPath id="3c325425a8"><path d="M 36 54 L 324 54 L 324 306 L 36 306 Z M 36 54 " clip-rule="nonzero"/></clipPath><clipPath id="b75ea6ef3a"><path d="M 47.417969 94.238281 C 24.066406 132.707031 40.515625 170.152344 61.191406 190.027344 L 182.070312 306 L 300.402344 190.441406 C 319.628906 169.0625 327 146.382812 322.90625 121.132812 C 317.25 86.203125 288.464844 59.101562 252.90625 55.230469 C 231.097656 52.882812 210.03125 59.054688 193.589844 72.71875 C 189.164062 76.394531 185.207031 80.503906 181.761719 84.972656 C 177.667969 79.886719 172.875 75.234375 167.449219 71.109375 C 148.539062 56.738281 124.472656 51.035156 101.351562 55.472656 C 79.457031 59.703125 59.800781 73.828125 47.417969 94.238281 Z M 47.417969 94.238281 " clip-rule="nonzero"/></clipPath><clipPath id="fc5de9f5db"><path d="M 0 0 L 288 0 L 288 252 L 0 252 Z M 0 0 " clip-rule="nonzero"/></clipPath><clipPath id="a5887b7b9d"><path d="M 11.417969 40.238281 C -11.933594 78.707031 4.515625 116.152344 25.191406 136.027344 L 146.070312 252 L 264.402344 136.441406 C 283.628906 115.0625 291 92.382812 286.90625 67.132812 C 281.25 32.203125 252.464844 5.101562 216.90625 1.230469 C 195.097656 -1.117188 174.03125 5.054688 157.589844 18.71875 C 153.164062 22.394531 149.207031 26.503906 145.761719 30.972656 C 141.667969 25.886719 136.875 21.234375 131.449219 17.109375 C 112.539062 2.738281 88.472656 -2.964844 65.351562 1.472656 C 43.457031 5.703125 23.800781 19.828125 11.417969 40.238281 Z M 11.417969 40.238281 " clip-rule="nonzero"/></clipPath><clipPath id="f012e7724a"><rect x="0" width="288" y="0" height="252"/></clipPath></defs><g clip-path="url(#3c325425a8)"><g clip-path="url(#b75ea6ef3a)"><g transform="matrix(1, 0, 0, 1, 36, 54)"><g clip-path="url(#f012e7724a)"><g clip-path="url(#fc5de9f5db)"><g clip-path="url(#a5887b7b9d)"><rect x="-115.2" width="518.4" fill="#958375" height="518.399981" y="-133.199997" fill-opacity="1"/></g></g></g></g></g></g></svg>